<svg width="955" height="296" viewBox="0 0 955 296" fill="none" xmlns="http://www.w3.org/2000/svg">
<path d="M636.5 148.5C636.5 228.785 576.758 293.5 503.5 293.5C430.242 293.5 370.5 228.785 370.5 148.5C370.5 68.2148 430.242 3.5 503.5 3.5C576.758 3.5 636.5 68.2148 636.5 148.5Z" stroke="#E5E5E5" stroke-width="5"/>
<path d="M564.5 146.5C564.5 183.133 537.014 212.5 503.5 212.5C469.986 212.5 442.5 183.133 442.5 146.5C442.5 109.867 469.986 80.5 503.5 80.5C537.014 80.5 564.5 109.867 564.5 146.5Z" stroke="#E5E5E5" stroke-width="5"/>
<rect x="362" y="180" width="277" height="57" fill="#040404"/>
<path d="M401.078 203.648C401.078 206.591 400.401 208.753 399.047 210.133C397.706 211.513 395.714 212.203 393.07 212.203H391.039V224H389.125V195.445H393.031C395.818 195.445 397.855 196.103 399.145 197.418C400.434 198.733 401.078 200.81 401.078 203.648ZM391.039 210.445H392.953C395.193 210.445 396.781 209.918 397.719 208.863C398.656 207.809 399.125 206.07 399.125 203.648C399.125 201.344 398.637 199.697 397.66 198.707C396.697 197.704 395.199 197.203 393.168 197.203H391.039V210.445ZM416.332 224L413.812 213.648H406.879L404.398 224H402.406L409.281 195.445H411.254L418.285 224H416.332ZM413.363 211.715L410.844 201.07C410.583 199.872 410.382 198.74 410.238 197.672C410.121 198.805 409.939 199.938 409.691 201.07L407.25 211.715H413.363ZM430.824 209.605H437.074V223.121C434.9 223.967 432.641 224.391 430.297 224.391C427.185 224.391 424.77 223.089 423.051 220.484C421.332 217.88 420.473 214.267 420.473 209.645C420.473 205.009 421.358 201.415 423.129 198.863C424.913 196.311 427.413 195.035 430.629 195.035C432.79 195.035 434.828 195.647 436.742 196.871L435.824 198.551C434.027 197.405 432.296 196.832 430.629 196.832C427.96 196.832 425.935 197.932 424.555 200.133C423.188 202.32 422.504 205.504 422.504 209.684C422.504 213.772 423.194 216.943 424.574 219.195C425.967 221.435 427.934 222.555 430.473 222.555C432.296 222.555 433.852 222.314 435.141 221.832V211.441H430.824V209.605ZM452.797 224H442.445V195.445H452.797V197.281H444.359V208.121H452.328V209.957H444.359V222.164H452.797V224ZM480.414 224H477.973L467.172 198.395H467.016C467.172 200.165 467.25 201.871 467.25 203.512V224H465.375V195.445H467.855L478.578 220.758H478.695C478.591 218.622 478.539 216.839 478.539 215.406V195.445H480.414V224ZM502.172 209.684C502.172 214.41 501.462 218.043 500.043 220.582C498.637 223.121 496.599 224.391 493.93 224.391C491.234 224.391 489.19 223.115 487.797 220.562C486.404 217.997 485.707 214.358 485.707 209.645C485.707 204.723 486.397 201.057 487.777 198.648C489.158 196.24 491.228 195.035 493.988 195.035C496.645 195.035 498.669 196.305 500.062 198.844C501.469 201.37 502.172 204.983 502.172 209.684ZM487.699 209.684C487.699 213.928 488.227 217.138 489.281 219.312C490.349 221.474 491.898 222.555 493.93 222.555C495.974 222.555 497.523 221.48 498.578 219.332C499.646 217.184 500.18 213.967 500.18 209.684C500.18 205.452 499.659 202.262 498.617 200.113C497.576 197.952 496.033 196.871 493.988 196.871C491.892 196.871 490.316 197.965 489.262 200.152C488.22 202.327 487.699 205.504 487.699 209.684ZM512.23 224H510.316V197.281H504.633V195.445H517.914V197.281H512.23V224ZM530.844 224H528.93V195.445H539.32V197.281H530.844V209.391H538.852V211.246H530.844V224ZM558.695 209.684C558.695 214.41 557.986 218.043 556.566 220.582C555.16 223.121 553.122 224.391 550.453 224.391C547.758 224.391 545.714 223.115 544.32 220.562C542.927 217.997 542.23 214.358 542.23 209.645C542.23 204.723 542.921 201.057 544.301 198.648C545.681 196.24 547.751 195.035 550.512 195.035C553.168 195.035 555.193 196.305 556.586 198.844C557.992 201.37 558.695 204.983 558.695 209.684ZM544.223 209.684C544.223 213.928 544.75 217.138 545.805 219.312C546.872 221.474 548.422 222.555 550.453 222.555C552.497 222.555 554.047 221.48 555.102 219.332C556.169 217.184 556.703 213.967 556.703 209.684C556.703 205.452 556.182 202.262 555.141 200.113C554.099 197.952 552.556 196.871 550.512 196.871C548.415 196.871 546.84 197.965 545.785 200.152C544.743 202.327 544.223 205.504 544.223 209.684ZM577.758 195.445V214.723C577.758 221.168 575.453 224.391 570.844 224.391C568.539 224.391 566.781 223.557 565.57 221.891C564.359 220.224 563.754 217.835 563.754 214.723V195.445H565.688V214.957C565.688 217.431 566.13 219.319 567.016 220.621C567.914 221.91 569.19 222.555 570.844 222.555C572.484 222.555 573.728 221.91 574.574 220.621C575.421 219.319 575.844 217.405 575.844 214.879V195.445H577.758ZM598.812 224H596.371L585.57 198.395H585.414C585.57 200.165 585.648 201.871 585.648 203.512V224H583.773V195.445H586.254L596.977 220.758H597.094C596.99 218.622 596.938 216.839 596.938 215.406V195.445H598.812V224ZM619.223 209.449C619.223 219.15 616.195 224 610.141 224H605.062V195.445H610.258C613.201 195.445 615.427 196.637 616.938 199.02C618.461 201.389 619.223 204.866 619.223 209.449ZM617.211 209.566C617.211 205.543 616.618 202.477 615.434 200.367C614.249 198.258 612.497 197.203 610.18 197.203H606.977V222.242H610.023C612.497 222.242 614.314 221.161 615.473 219C616.632 216.839 617.211 213.694 617.211 209.566Z" fill="white"/>
<path d="M326.5 176H273V3H203L8 239.5H203V293.5H273V242V239.5H326.5" stroke="#E5E5E5" stroke-width="5"/>
<path d="M203.5 87.5L131 176.5H203.5V87.5Z" stroke="#E5E5E5" stroke-width="5"/>
<rect y="179.5" width="54" height="63" fill="#040404"/>
<rect x="54" y="179.5" width="272" height="57" fill="#040404"/>
<path d="M64.4766 223.5H54.125V194.945H64.4766V196.781H56.0391V207.621H64.0078V209.457H56.0391V221.664H64.4766V223.5ZM71.4297 211.02V223.5H69.5156V194.945H73.4219C76.2083 194.945 78.2461 195.603 79.5352 196.918C80.8242 198.233 81.4688 200.199 81.4688 202.816C81.4688 204.796 81.1172 206.423 80.4141 207.699C79.7109 208.975 78.5326 209.932 76.8789 210.57L82.543 223.5H80.3945L75.0625 211.02H71.4297ZM71.4297 209.262H74.1055C75.8372 209.262 77.1719 208.728 78.1094 207.66C79.0469 206.592 79.5156 205.004 79.5156 202.895C79.5156 200.746 79.0339 199.197 78.0703 198.246C77.1198 197.296 75.6159 196.82 73.5586 196.82H71.4297V209.262ZM88.4219 211.02V223.5H86.5078V194.945H90.4141C93.2005 194.945 95.2383 195.603 96.5273 196.918C97.8164 198.233 98.4609 200.199 98.4609 202.816C98.4609 204.796 98.1094 206.423 97.4062 207.699C96.7031 208.975 95.5247 209.932 93.8711 210.57L99.5352 223.5H97.3867L92.0547 211.02H88.4219ZM88.4219 209.262H91.0977C92.8294 209.262 94.1641 208.728 95.1016 207.66C96.0391 206.592 96.5078 205.004 96.5078 202.895C96.5078 200.746 96.026 199.197 95.0625 198.246C94.112 197.296 92.6081 196.82 90.5508 196.82H88.4219V209.262ZM119.008 209.184C119.008 213.91 118.298 217.543 116.879 220.082C115.473 222.621 113.435 223.891 110.766 223.891C108.07 223.891 106.026 222.615 104.633 220.062C103.24 217.497 102.543 213.858 102.543 209.145C102.543 204.223 103.233 200.557 104.613 198.148C105.993 195.74 108.064 194.535 110.824 194.535C113.48 194.535 115.505 195.805 116.898 198.344C118.305 200.87 119.008 204.483 119.008 209.184ZM104.535 209.184C104.535 213.428 105.062 216.638 106.117 218.812C107.185 220.974 108.734 222.055 110.766 222.055C112.81 222.055 114.359 220.98 115.414 218.832C116.482 216.684 117.016 213.467 117.016 209.184C117.016 204.952 116.495 201.762 115.453 199.613C114.411 197.452 112.868 196.371 110.824 196.371C108.728 196.371 107.152 197.465 106.098 199.652C105.056 201.827 104.535 205.004 104.535 209.184ZM126.234 211.02V223.5H124.32V194.945H128.227C131.013 194.945 133.051 195.603 134.34 196.918C135.629 198.233 136.273 200.199 136.273 202.816C136.273 204.796 135.922 206.423 135.219 207.699C134.516 208.975 133.337 209.932 131.684 210.57L137.348 223.5H135.199L129.867 211.02H126.234ZM126.234 209.262H128.91C130.642 209.262 131.977 208.728 132.914 207.66C133.852 206.592 134.32 205.004 134.32 202.895C134.32 200.746 133.839 199.197 132.875 198.246C131.924 197.296 130.421 196.82 128.363 196.82H126.234V209.262Z" fill="white"/>
<path d="M953.5 176H900V3H830L635 239.5H830V293.5H900V242V239.5H953.5" stroke="#E5E5E5" stroke-width="5"/>
<path d="M830.5 87.5L758 176.5H830.5V87.5Z" stroke="#E5E5E5" stroke-width="5"/>
<rect x="627" y="179.5" width="54" height="63" fill="#040404"/>
<rect x="681" y="179.5" width="272" height="57" fill="#040404"/>
<path d="M880.477 223.5H870.125V194.945H880.477V196.781H872.039V207.621H880.008V209.457H872.039V221.664H880.477V223.5ZM887.43 211.02V223.5H885.516V194.945H889.422C892.208 194.945 894.246 195.603 895.535 196.918C896.824 198.233 897.469 200.199 897.469 202.816C897.469 204.796 897.117 206.423 896.414 207.699C895.711 208.975 894.533 209.932 892.879 210.57L898.543 223.5H896.395L891.062 211.02H887.43ZM887.43 209.262H890.105C891.837 209.262 893.172 208.728 894.109 207.66C895.047 206.592 895.516 205.004 895.516 202.895C895.516 200.746 895.034 199.197 894.07 198.246C893.12 197.296 891.616 196.82 889.559 196.82H887.43V209.262ZM904.422 211.02V223.5H902.508V194.945H906.414C909.201 194.945 911.238 195.603 912.527 196.918C913.816 198.233 914.461 200.199 914.461 202.816C914.461 204.796 914.109 206.423 913.406 207.699C912.703 208.975 911.525 209.932 909.871 210.57L915.535 223.5H913.387L908.055 211.02H904.422ZM904.422 209.262H907.098C908.829 209.262 910.164 208.728 911.102 207.66C912.039 206.592 912.508 205.004 912.508 202.895C912.508 200.746 912.026 199.197 911.062 198.246C910.112 197.296 908.608 196.82 906.551 196.82H904.422V209.262ZM935.008 209.184C935.008 213.91 934.298 217.543 932.879 220.082C931.473 222.621 929.435 223.891 926.766 223.891C924.07 223.891 922.026 222.615 920.633 220.062C919.24 217.497 918.543 213.858 918.543 209.145C918.543 204.223 919.233 200.557 920.613 198.148C921.993 195.74 924.064 194.535 926.824 194.535C929.48 194.535 931.505 195.805 932.898 198.344C934.305 200.87 935.008 204.483 935.008 209.184ZM920.535 209.184C920.535 213.428 921.062 216.638 922.117 218.812C923.185 220.974 924.734 222.055 926.766 222.055C928.81 222.055 930.359 220.98 931.414 218.832C932.482 216.684 933.016 213.467 933.016 209.184C933.016 204.952 932.495 201.762 931.453 199.613C930.411 197.452 928.868 196.371 926.824 196.371C924.728 196.371 923.152 197.465 922.098 199.652C921.056 201.827 920.535 205.004 920.535 209.184ZM942.234 211.02V223.5H940.32V194.945H944.227C947.013 194.945 949.051 195.603 950.34 196.918C951.629 198.233 952.273 200.199 952.273 202.816C952.273 204.796 951.922 206.423 951.219 207.699C950.516 208.975 949.337 209.932 947.684 210.57L953.348 223.5H951.199L945.867 211.02H942.234ZM942.234 209.262H944.91C946.642 209.262 947.977 208.728 948.914 207.66C949.852 206.592 950.32 205.004 950.32 202.895C950.32 200.746 949.839 199.197 948.875 198.246C947.924 197.296 946.421 196.82 944.363 196.82H942.234V209.262Z" fill="white"/>
</svg>
