<svg width="50" height="50" viewBox="0 0 50 50" fill="none" xmlns="http://www.w3.org/2000/svg">
<path d="M19.5835 21.8749L29.521 4.66656C26.4481 3.98031 23.2595 4.00064 20.1957 4.72601C17.1318 5.45139 14.2725 6.86287 11.8335 8.85406L19.4585 22.0832L19.5835 21.8749ZM44.8752 18.7499C42.9585 12.6666 38.3127 7.79156 32.3752 5.54156L24.7502 18.7499H44.8752ZM45.4168 20.8332H29.8127L30.4169 21.8749L40.3335 39.0624C43.8767 35.2375 45.8416 30.2137 45.8335 24.9999C45.8335 23.5624 45.6877 22.1874 45.4168 20.8332ZM17.7919 24.9999L9.66686 10.9374C7.43457 13.355 5.80939 16.2689 4.92551 19.4386C4.04163 22.6082 3.92441 25.9427 4.58352 29.1666H20.1877L17.7919 24.9999ZM5.12519 31.2499C7.04186 37.3332 11.6877 42.2082 17.6252 44.4582L25.2502 31.2499H5.12519ZM28.6043 31.2499L20.4794 45.3332C23.5522 46.0195 26.7408 45.9991 29.8047 45.2738C32.8686 44.5484 35.7278 43.1369 38.1668 41.1457L30.5418 27.9166L28.6043 31.2499Z" fill="white"/>
</svg>
