<svg width="90" height="90" viewBox="0 0 90 90" fill="none" xmlns="http://www.w3.org/2000/svg">
<path d="M18.75 78.75V33.75M71.25 11.25V26.25V11.25ZM71.25 78.75V41.25V78.75ZM45 11.25V56.25V11.25ZM45 78.75V71.25V78.75ZM18.75 11.25V18.75V11.25Z" stroke="#EAEAEA" stroke-width="4" stroke-linecap="round"/>
<path d="M63.75 33.75C63.75 37.8921 67.1079 41.25 71.25 41.25C75.3921 41.25 78.75 37.8921 78.75 33.75C78.75 29.6079 75.3921 26.25 71.25 26.25C67.1079 26.25 63.75 29.6079 63.75 33.75Z" stroke="#EAEAEA" stroke-width="4" stroke-linecap="round"/>
<path d="M37.5 63.75C37.5 67.8921 40.8579 71.25 45 71.25C49.1421 71.25 52.5 67.8921 52.5 63.75C52.5 59.6079 49.1421 56.25 45 56.25C40.8579 56.25 37.5 59.6079 37.5 63.75Z" stroke="#EAEAEA" stroke-width="4" stroke-linecap="round"/>
<path d="M11.25 26.25C11.25 30.3921 14.6079 33.75 18.75 33.75C22.8921 33.75 26.25 30.3921 26.25 26.25C26.25 22.1079 22.8921 18.75 18.75 18.75C14.6079 18.75 11.25 22.1079 11.25 26.25Z" stroke="#EAEAEA" stroke-width="4" stroke-linecap="round"/>
</svg>
