<svg width="90" height="90" viewBox="0 0 90 90" fill="none" xmlns="http://www.w3.org/2000/svg">
<g clip-path="url(#clip0_39_142)">
<path d="M49.86 0.258491C44.4825 -1.08588 39.4875 2.98099 39.1275 8.24599C38.7225 14.1579 37.8337 19.586 36.72 22.8147C36.0169 24.8397 34.0256 28.5129 30.87 32.0341C27.7369 35.5385 23.6588 38.6604 18.8831 39.9654C15.1031 40.9947 11.25 44.2685 11.25 49.0497V71.5554C11.25 76.3085 15.0862 79.7904 19.395 80.246C25.4137 80.8872 28.1925 82.5804 31.0275 84.3129L31.2975 84.4816C32.8275 85.4097 34.5487 86.4391 36.7537 87.2041C38.9869 87.9691 41.5969 88.4247 45 88.4247H64.6875C69.9581 88.4247 73.6819 85.7416 75.5663 82.4397C76.477 80.8816 76.9692 79.1143 76.995 77.3097C76.995 76.4547 76.8656 75.5547 76.5619 74.6997C77.6925 73.2204 78.6994 71.4485 79.3069 69.6316C79.9256 67.7754 80.2744 65.3454 79.3294 63.1685C79.7175 62.4372 80.0044 61.6554 80.2237 60.9016C80.6569 59.3829 80.8594 57.7066 80.8594 56.081C80.8594 54.461 80.6569 52.7904 80.2237 51.266C80.027 50.5652 79.7672 49.8837 79.4475 49.2297C80.4324 47.8284 81.0661 46.2109 81.2952 44.5134C81.5243 42.8159 81.342 41.0883 80.7637 39.476C79.605 36.146 76.9275 33.2885 74.0137 32.321C69.2494 30.7347 63.8719 30.7685 59.8613 31.1341C59.0286 31.209 58.1978 31.3028 57.3694 31.4154C59.3207 23.0588 59.201 14.352 57.0206 6.05224C56.6413 4.72243 55.9136 3.5181 54.9128 2.56378C53.912 1.60947 52.6745 0.939832 51.3281 0.624116L49.86 0.258491ZM64.6875 82.8054H45C42.1313 82.8054 40.1456 82.4172 38.5875 81.8829C37.0069 81.3372 35.7413 80.6004 34.2225 79.6722L33.9975 79.5372C30.8756 77.6304 27.2587 75.4254 19.9912 74.6547C18.1181 74.4522 16.875 73.0235 16.875 71.561V49.0497C16.875 47.621 18.1462 45.9954 20.3625 45.3935C26.5219 43.706 31.4831 39.791 35.0663 35.786C38.6381 31.7922 41.0513 27.4891 42.03 24.6597C43.3969 20.7222 44.3194 14.7147 44.7412 8.62849C44.8819 6.59224 46.7663 5.28724 48.4931 5.71474L49.9669 6.08599C50.8669 6.31099 51.4181 6.89037 51.5869 7.52037C53.884 16.273 53.6008 25.5032 50.7713 34.0985C50.6111 34.5765 50.5824 35.0889 50.6881 35.5818C50.7938 36.0748 51.0302 36.5302 51.3723 36.9005C51.7144 37.2709 52.1498 37.5424 52.6329 37.6867C53.1159 37.8311 53.6289 37.8429 54.1181 37.721L54.135 37.7154L54.2137 37.6985L54.54 37.6197C56.4635 37.2113 58.4094 36.9164 60.3675 36.7366C64.0969 36.3991 68.5631 36.4329 72.2363 37.6591C73.2206 37.9854 74.7675 39.3466 75.4425 41.3154C76.0444 43.0479 75.9319 45.0841 73.9463 47.0641L71.9606 49.0497L73.9463 51.041C74.1881 51.2829 74.5369 51.8341 74.8125 52.8129C75.0825 53.7522 75.2344 54.8941 75.2344 56.081C75.2344 57.2735 75.0825 58.4097 74.8125 59.3547C74.5312 60.3335 74.1881 60.8847 73.9463 61.1266L71.9606 63.1122L73.9463 65.1035C74.2106 65.3679 74.5594 66.0991 73.9744 67.8485C73.3648 69.5449 72.3958 71.0895 71.1338 72.3766L69.1481 74.3622L71.1338 76.3535C71.1675 76.3816 71.3644 76.6347 71.3644 77.3097C71.3394 78.1348 71.1052 78.94 70.6838 79.6497C69.7556 81.2697 67.8544 82.7997 64.6875 82.7997V82.8054Z" fill="#EAEAEA"/>
</g>
<defs>
<clipPath id="clip0_39_142">
<rect width="90" height="90" fill="white"/>
</clipPath>
</defs>
</svg>
