<svg width="87" height="87" viewBox="0 0 87 87" fill="none" xmlns="http://www.w3.org/2000/svg">
<path d="M66.1363 13.3184H20.8636C16.6963 13.3184 13.3181 16.6966 13.3181 20.8638V66.1366C13.3181 70.3039 16.6963 73.6821 20.8636 73.6821H66.1363C70.3036 73.6821 73.6818 70.3039 73.6818 66.1366V20.8638C73.6818 16.6966 70.3036 13.3184 66.1363 13.3184Z" stroke="#EAEAEA" stroke-width="4" stroke-linecap="round" stroke-linejoin="round"/>
<path d="M54.8182 32.1816H32.1819V54.818H54.8182V32.1816Z" stroke="#EAEAEA" stroke-width="4" stroke-linecap="round" stroke-linejoin="round"/>
<path d="M32.1819 2V13.3182" stroke="#EAEAEA" stroke-width="4" stroke-linecap="round" stroke-linejoin="round"/>
<path d="M54.8181 2V13.3182" stroke="#EAEAEA" stroke-width="4" stroke-linecap="round" stroke-linejoin="round"/>
<path d="M32.1819 73.6819V85.0001" stroke="#EAEAEA" stroke-width="4" stroke-linecap="round" stroke-linejoin="round"/>
<path d="M54.8181 73.6819V85.0001" stroke="#EAEAEA" stroke-width="4" stroke-linecap="round" stroke-linejoin="round"/>
<path d="M73.6819 32.1816H85.0001" stroke="#EAEAEA" stroke-width="4" stroke-linecap="round" stroke-linejoin="round"/>
<path d="M73.6819 51.0457H85.0001" stroke="#EAEAEA" stroke-width="4" stroke-linecap="round" stroke-linejoin="round"/>
<path d="M2 32.1816H13.3182" stroke="#EAEAEA" stroke-width="4" stroke-linecap="round" stroke-linejoin="round"/>
<path d="M2 51.0457H13.3182" stroke="#EAEAEA" stroke-width="4" stroke-linecap="round" stroke-linejoin="round"/>
</svg>
