<svg width="138" height="59" viewBox="0 0 138 59" fill="none" xmlns="http://www.w3.org/2000/svg">
<path d="M0.585938 42.8047L24.0234 29.7578L0.585938 16.7109V12.8047L28.0469 28.3906V31.0469L0.585938 46.7891V42.8047ZM58.1641 24.4844C58.1641 35.8646 56.7318 44.4323 53.8672 50.1875C51.0286 55.9167 46.862 58.7812 41.3672 58.7812C40.4036 58.7812 39.375 58.6901 38.2812 58.5078C37.2135 58.3255 36.4714 58.1302 36.0547 57.9219V54.1719C37.487 54.7969 39.362 55.1094 41.6797 55.1094C45.4557 55.1094 48.4375 52.9219 50.625 48.5469C52.8125 44.1719 54.0365 37.9349 54.2969 29.8359H53.9844C53.099 31.8151 51.888 33.3646 50.3516 34.4844C48.8151 35.6042 47.0443 36.1641 45.0391 36.1641C41.4714 36.1641 38.6719 34.5625 36.6406 31.3594C34.6094 28.1562 33.5938 23.8333 33.5938 18.3906C33.5938 12.7135 34.6875 8.2474 36.875 4.99219C39.0885 1.71094 42.1484 0.0703125 46.0547 0.0703125C50.0391 0.0703125 53.0469 2.17969 55.0781 6.39844C57.1354 10.5911 58.1641 16.6198 58.1641 24.4844ZM45.8203 3.74219C43.2682 3.74219 41.237 4.95312 39.7266 7.375C38.2422 9.77083 37.5 13.3906 37.5 18.2344C37.5 22.8698 38.1771 26.4245 39.5312 28.8984C40.8854 31.3464 42.9036 32.5703 45.5859 32.5703C48.1901 32.5703 50.2734 31.4766 51.8359 29.2891C53.4245 27.0755 54.2188 24.1328 54.2188 20.4609C54.2188 17.2057 53.8672 14.276 53.1641 11.6719C52.487 9.06771 51.5234 7.10156 50.2734 5.77344C49.0234 4.41927 47.5391 3.74219 45.8203 3.74219ZM90.8984 29.3672C90.8984 39.0286 89.8438 46.3464 87.7344 51.3203C85.651 56.2943 82.526 58.7812 78.3594 58.7812C73.9583 58.7812 70.7682 56.4896 68.7891 51.9062C66.8359 47.2969 65.8594 39.7839 65.8594 29.3672C65.8594 9.83594 70.026 0.0703125 78.3594 0.0703125C82.6823 0.0703125 85.8464 2.49219 87.8516 7.33594C89.8828 12.1797 90.8984 19.5234 90.8984 29.3672ZM69.8438 29.3672C69.8438 37.9609 70.5208 44.4062 71.875 48.7031C73.2552 52.974 75.4167 55.1094 78.3594 55.1094C84.0625 55.1094 86.9141 46.5286 86.9141 29.3672C86.9141 12.2839 84.0625 3.74219 78.3594 3.74219C75.4167 3.74219 73.2552 5.85156 71.875 10.0703C70.5208 14.2891 69.8438 20.7214 69.8438 29.3672ZM101.641 17.8438C101.641 22.7917 101.966 26.5026 102.617 28.9766C103.294 31.4245 104.44 32.6484 106.055 32.6484C107.617 32.6484 108.737 31.4375 109.414 29.0156C110.117 26.5677 110.469 22.8438 110.469 17.8438C110.469 8.02604 108.945 3.11719 105.898 3.11719C104.362 3.11719 103.268 4.34115 102.617 6.78906C101.966 9.21094 101.641 12.8958 101.641 17.8438ZM113.984 17.9219C113.984 23.651 113.281 28.0911 111.875 31.2422C110.469 34.3672 108.503 35.9297 105.977 35.9297C103.398 35.9297 101.445 34.3672 100.117 31.2422C98.7891 28.1172 98.125 23.6771 98.125 17.9219C98.125 12.1667 98.776 7.7526 100.078 4.67969C101.406 1.60677 103.372 0.0703125 105.977 0.0703125C108.581 0.0703125 110.56 1.59375 111.914 4.64062C113.294 7.66146 113.984 12.0885 113.984 17.9219ZM129.023 0.890625L110.469 58H107.031L125.586 0.890625H129.023ZM125.664 40.7344C125.664 45.6823 125.99 49.3932 126.641 51.8672C127.292 54.3151 128.424 55.5391 130.039 55.5391C131.602 55.5391 132.721 54.3281 133.398 51.9062C134.102 49.4583 134.453 45.7344 134.453 40.7344C134.453 30.9167 132.93 26.0078 129.883 26.0078C128.346 26.0078 127.253 27.2318 126.602 29.6797C125.977 32.1016 125.664 35.7865 125.664 40.7344ZM137.969 40.8125C137.969 46.6198 137.266 51.0729 135.859 54.1719C134.453 57.2448 132.487 58.7812 129.961 58.7812C127.409 58.7812 125.469 57.2057 124.141 54.0547C122.812 50.9036 122.148 46.4896 122.148 40.8125C122.148 34.849 122.812 30.3828 124.141 27.4141C125.495 24.4453 127.435 22.9609 129.961 22.9609C132.565 22.9609 134.544 24.4844 135.898 27.5312C137.279 30.5521 137.969 34.9792 137.969 40.8125Z" fill="#EAEAEA"/>
</svg>
