<svg width="101" height="101" viewBox="0 0 101 101" fill="none" xmlns="http://www.w3.org/2000/svg">
<path d="M50.5 8.41675C27.2952 8.41675 8.41663 27.2953 8.41663 50.5001V67.9352C8.41663 72.2445 12.1915 75.7501 16.8333 75.7501H21.0416C22.1577 75.7501 23.2282 75.3067 24.0174 74.5175C24.8066 73.7283 25.25 72.6579 25.25 71.5418V49.8983C25.25 48.7822 24.8066 47.7118 24.0174 46.9226C23.2282 46.1333 22.1577 45.69 21.0416 45.69H17.2205C19.5603 29.4037 33.574 16.8334 50.5 16.8334C67.4259 16.8334 81.4396 29.4037 83.7795 45.69H79.9583C78.8422 45.69 77.7718 46.1333 76.9826 46.9226C76.1933 47.7118 75.75 48.7822 75.75 49.8983V75.7501C75.75 80.3919 71.9751 84.1667 67.3333 84.1667H58.9166V79.9584H42.0833V92.5834H67.3333C76.6169 92.5834 84.1666 85.0337 84.1666 75.7501C88.8084 75.7501 92.5833 72.2445 92.5833 67.9352V50.5001C92.5833 27.2953 73.7047 8.41675 50.5 8.41675Z" fill="#EAEAEA"/>
</svg>
